<svg xmlns="http://www.w3.org/2000/svg" viewBox="0 0 520 320" role="img" aria-labelledby="t"><title id="t">Bayeux-inspired fortified hall</title><rect width="520" height="320" fill="none"/><g stroke="#2b2119" stroke-width="7" stroke-linejoin="round"><path d="M72 250V94h78V56h76v38h68V56h76v38h78v156z" fill="#d7b86e"/><path d="M92 118h336M92 157h336M92 196h336" fill="none"/><path d="M147 250v-66c0-28 24-45 52-45s52 17 52 45v66" fill="#a83a2a"/><path d="M309 250v-84h86v84" fill="#244d67"/><path d="M99 93V62h35v31M242 93V62h35v31M385 93V62h35v31" fill="none"/></g><g fill="#2b2119"><circle cx="127" cy="135" r="6"/><circle cx="187" cy="135" r="6"/><circle cx="247" cy="135" r="6"/><circle cx="307" cy="135" r="6"/><circle cx="367" cy="135" r="6"/></g><g stroke="#7a5b3a" stroke-width="4" stroke-linecap="round"><path d="M55 275h410M101 292h121M289 292h142"/></g></svg>